<svg width="22" height="22" viewBox="0 0 22 22" fill="none" xmlns="http://www.w3.org/2000/svg">
<path d="M8.98828 10.5371C9.08984 10.6217 9.2041 10.6937 9.33105 10.7529C9.45801 10.8122 9.59766 10.8418 9.75 10.8418C9.90234 10.8418 10.0462 10.8122 10.1816 10.7529C10.3171 10.6937 10.4355 10.6217 10.5371 10.5371L14.8535 6.19531C14.9551 6.09375 15.0355 5.97949 15.0947 5.85254C15.154 5.72559 15.1836 5.58594 15.1836 5.43359C15.1836 5.12891 15.0778 4.87077 14.8662 4.65918C14.6546 4.44759 14.3965 4.3418 14.0918 4.3418C13.9395 4.3418 13.7998 4.37142 13.6729 4.43066C13.5459 4.48991 13.4316 4.56185 13.3301 4.64648L9.75 8.22656L8.35352 6.83008C8.25195 6.72852 8.1377 6.64811 8.01074 6.58887C7.88379 6.52962 7.74414 6.5 7.5918 6.5C7.28711 6.5 7.02897 6.60579 6.81738 6.81738C6.60579 7.02897 6.5 7.28711 6.5 7.5918C6.5 7.74414 6.52962 7.88379 6.58887 8.01074C6.64811 8.1377 6.72852 8.25195 6.83008 8.35352L8.98828 10.5371ZM20.5918 13H19.5V2.18359H20.5918C20.8965 2.18359 21.1546 2.0778 21.3662 1.86621C21.5778 1.65462 21.6836 1.39648 21.6836 1.0918C21.6836 0.787109 21.5778 0.528971 21.3662 0.317383C21.1546 0.105794 20.8965 0 20.5918 0H1.0918C0.787109 0 0.528971 0.105794 0.317383 0.317383C0.105794 0.528971 0 0.787109 0 1.0918C0 1.39648 0.105794 1.65462 0.317383 1.86621C0.528971 2.0778 0.787109 2.18359 1.0918 2.18359H2.18359V13H1.0918C0.787109 13 0.528971 13.1058 0.317383 13.3174C0.105794 13.529 0 13.7871 0 14.0918C0 14.3965 0.105794 14.6546 0.317383 14.8662C0.528971 15.0778 0.787109 15.1836 1.0918 15.1836H9.75V16.4277L4.82422 19.6777C4.67188 19.7624 4.54915 19.8893 4.45605 20.0586C4.36296 20.2279 4.31641 20.4056 4.31641 20.5918C4.31641 20.8965 4.4222 21.1546 4.63379 21.3662C4.84538 21.5778 5.10352 21.6836 5.4082 21.6836C5.4082 21.6836 5.41667 21.6836 5.43359 21.6836C5.55208 21.6836 5.65788 21.6667 5.75098 21.6328C5.84408 21.599 5.93294 21.5482 6.01758 21.4805L9.75 19.0176V20.5918C9.75 20.8965 9.85579 21.1546 10.0674 21.3662C10.279 21.5778 10.5371 21.6836 10.8418 21.6836C11.1465 21.6836 11.4046 21.5778 11.6162 21.3662C11.8278 21.1546 11.9336 20.8965 11.9336 20.5918V19.0176L15.666 21.4805C15.7507 21.5482 15.8395 21.599 15.9326 21.6328C16.0257 21.6667 16.1315 21.6836 16.25 21.6836C16.5547 21.6836 16.8128 21.5778 17.0244 21.3662C17.236 21.1546 17.3418 20.8965 17.3418 20.5918C17.3418 20.4056 17.2952 20.2321 17.2021 20.0713C17.109 19.9105 16.9948 19.7878 16.8594 19.7031L11.9336 16.4531V15.1836H20.5918C20.8965 15.1836 21.1546 15.0778 21.3662 14.8662C21.5778 14.6546 21.6836 14.3965 21.6836 14.0918C21.6836 13.7871 21.5778 13.529 21.3662 13.3174C21.1546 13.1058 20.8965 13 20.5918 13ZM17.3418 13H4.3418V2.18359H17.3418V13Z" fill="#5EB9F0"/>
</svg>
